<svg xmlns="http://www.w3.org/2000/svg" width="256" height="175" viewBox="0 0 256 175">
<!-- SVG created with Arrow, by QuiverAI (https://quiver.ai) -->
  <path d="m181.9 0c-24.96 0-45.54 10.64-54.38 23.06-13.4-14.65-31.74-23.06-53.91-23.06-40.69 0-73.61 31.93-73.61 73.92 0 32.27 8.66 62.03 28.99 101.1l11.46-35.59c10.83 5.6 21.88 7.78 33.13 7.78 17.61 0 32.61-6.24 44.53-14.98 5.7 15.97 12.6 29.72 19.4 42.79l11.03-35.59c10.47 5.35 20.87 7.78 33.33 7.78 40.69 0 73.61-33.32 73.61-73.27 0-40.73-32.89-73.92-73.58-73.92z" fill="#9B51F7"/>
  <path d="m108.3 73.92c0-21.9 7.48-38.77 19.2-50.86-13.4-14.65-31.74-23.06-53.91-23.06-40.69 0-73.61 31.93-73.61 73.92 0 32.27 8.66 62.03 28.99 101.1l11.46-35.59c10.83 5.6 21.88 7.78 33.13 7.78 17.61 0 32.61-6.24 44.53-14.98-6.7-18.95-9.79-34.45-9.79-58.29z" fill="#00E1E1"/>
  <path d="m127.5 23.06c-11.72 12.09-19.2 28.96-19.2 50.86 0 23.84 3.09 39.34 9.79 58.29 17.67-14.9 28.7-35.62 28.7-58.29 0-19.38-6.64-37.69-19.29-50.86z" fill="#1A32D2"/>
</svg>